<?xml version="1.0" encoding="utf-8"?>
<svg viewBox="88.608 55.892 203.1086 188.763" xmlns="http://www.w3.org/2000/svg">
  <path fill="#FFFFFF" opacity="1.000000" stroke="none" d="M 234.104 244.655 C 185.434 244.655 137.02 244.655 88.608 244.655 C 88.608 181.734 88.608 118.813 88.608 55.892 C 156.265 55.892 223.921 55.892 291.578 55.892 C 291.578 118.813 291.578 181.734 291.578 244.655 C 272.506 244.655 253.435 244.655 234.104 244.655 M 204.85 90.662 C 181.329 90.662 157.806 90.662 134.319 90.662 C 134.319 129.559 134.319 168.102 134.319 206.603 C 169.369 206.603 204.27 206.603 239.135 206.603 C 239.135 167.883 239.135 129.34 239.135 90.662 C 227.781 90.662 216.575 90.662 204.85 90.662 Z" style="" transform="matrix(1, 0, 0, 1, 0, -3.552713678800501e-15)"/>
  <path fill="#010301" opacity="1.000000" stroke="none" d="&#10;M226.000000,56.996826 &#10;&#9;C248.143585,56.996826 269.787170,56.996826 291.716553,56.996826 &#10;&#9;C291.716553,119.287964 291.716553,181.358887 291.716553,243.716690 &#10;&#9;C224.378510,243.716690 156.974426,243.716690 89.283386,243.716690 &#10;&#9;C89.283386,181.711945 89.283386,119.641029 89.283386,56.996826 &#10;&#9;C134.644043,56.996826 180.072021,56.996826 226.000000,56.996826 &#10;M118.465584,219.241425 &#10;&#9;C119.083145,219.478989 119.685371,219.772736 120.320465,219.946014 &#10;&#9;C147.536240,227.371338 175.373932,231.266037 203.390045,233.596802 &#10;&#9;C218.910400,234.887985 234.573303,235.004028 250.160522,234.795395 &#10;&#9;C264.668518,234.601196 275.546539,228.085403 279.690948,213.350403 &#10;&#9;C281.345337,207.468445 282.691895,201.291153 282.811676,195.221329 &#10;&#9;C283.432251,163.780029 283.804077,132.330383 283.864532,100.882889 &#10;&#9;C283.896454,84.280807 276.903168,75.791389 260.928619,71.453964 &#10;&#9;C259.005524,70.931793 257.065430,70.362679 255.096390,70.137917 &#10;&#9;C245.840897,69.081406 236.565521,68.198967 227.310059,67.142212 &#10;&#9;C196.968307,63.677872 166.573349,63.204163 136.181915,66.066002 &#10;&#9;C116.598503,67.910088 107.115562,75.937645 102.638550,94.053513 &#10;&#9;C101.171631,99.989250 100.517754,106.194260 100.136833,112.316254 &#10;&#9;C99.258499,126.432526 98.610062,140.568420 98.185547,154.705887 &#10;&#9;C97.862000,165.480835 97.211220,176.344101 98.178024,187.034958 &#10;&#9;C99.400169,200.549362 104.030907,212.743317 118.465584,219.241425 &#10;z" transform="matrix(1, 0, 0, 1, 0, -3.552713678800501e-15)"/>
  <path fill="#32D132" opacity="1.000000" stroke="none" d="&#10;M118.101585,219.109467 &#10;&#9;C104.030907,212.743317 99.400169,200.549362 98.178024,187.034958 &#10;&#9;C97.211220,176.344101 97.862000,165.480835 98.185547,154.705887 &#10;&#9;C98.610062,140.568420 99.258499,126.432526 100.136833,112.316254 &#10;&#9;C100.517754,106.194260 101.171631,99.989250 102.638550,94.053513 &#10;&#9;C107.115562,75.937645 116.598503,67.910088 136.181915,66.066002 &#10;&#9;C166.573349,63.204163 196.968307,63.677872 227.310059,67.142212 &#10;&#9;C236.565521,68.198967 245.840897,69.081406 255.096390,70.137917 &#10;&#9;C257.065430,70.362679 259.005524,70.931793 260.928619,71.453964 &#10;&#9;C276.903168,75.791389 283.896454,84.280807 283.864532,100.882889 &#10;&#9;C283.804077,132.330383 283.432251,163.780029 282.811676,195.221329 &#10;&#9;C282.691895,201.291153 281.345337,207.468445 279.690948,213.350403 &#10;&#9;C275.546539,228.085403 264.668518,234.601196 250.160522,234.795395 &#10;&#9;C234.573303,235.004028 218.910400,234.887985 203.390045,233.596802 &#10;&#9;C175.373932,231.266037 147.536240,227.371338 120.320465,219.946014 &#10;&#9;C119.685371,219.772736 119.083145,219.478989 118.101585,219.109467 &#10;M250.813095,117.408318 &#10;&#9;C250.722000,117.002243 250.630920,116.596161 251.113998,115.907616 &#10;&#9;C250.763367,115.271774 250.412720,114.635941 249.780197,113.369247 &#10;&#9;C247.192535,111.251595 244.782166,108.843597 241.955368,107.117599 &#10;&#9;C240.046631,105.952126 237.357849,106.111282 235.353607,105.046318 &#10;&#9;C229.085236,101.715607 223.715042,103.770714 218.669540,107.528625 &#10;&#9;C217.024353,108.753975 215.902100,110.681419 214.266891,112.610779 &#10;&#9;C199.657806,101.726242 183.525055,98.452957 165.958405,102.008621 &#10;&#9;C145.460724,106.157562 130.307800,116.986244 124.235794,137.594559 &#10;&#9;C117.984558,158.811142 123.230385,177.637939 139.594345,192.546906 &#10;&#9;C149.292435,201.382690 160.957016,205.480759 174.178024,200.679428 &#10;&#9;C182.036575,197.825531 188.059097,189.527313 188.092575,182.159424 &#10;&#9;C188.119659,176.199509 184.076706,170.413879 177.086426,168.205215 &#10;&#9;C173.270401,166.999481 168.865524,166.876816 164.842804,167.321182 &#10;&#9;C160.661865,167.783066 157.474380,170.629227 156.528748,174.951004 &#10;&#9;C155.624069,179.085632 157.389359,182.382111 160.751862,184.919815 &#10;&#9;C161.776642,185.693192 162.356369,187.179291 163.446579,187.715652 &#10;&#9;C165.326797,188.640656 167.694763,189.929993 169.385544,189.439072 &#10;&#9;C170.651596,189.071457 172.239517,185.749619 171.758881,184.461502 &#10;&#9;C171.163239,182.865173 168.640533,181.168198 166.839828,181.037582 &#10;&#9;C164.280273,180.851944 161.693588,181.083633 162.005280,177.882187 &#10;&#9;C162.229477,175.579605 163.395721,172.147552 165.076294,171.440445 &#10;&#9;C169.825851,169.442001 174.629318,170.978516 178.566727,174.204025 &#10;&#9;C182.320129,177.278778 183.906021,181.284653 182.576843,186.233627 &#10;&#9;C179.969086,195.943192 169.307907,200.375992 158.634644,196.114746 &#10;&#9;C144.007965,190.275146 134.858765,172.150055 137.742172,154.725540 &#10;&#9;C139.210999,145.849304 145.668106,142.563873 154.629196,146.471725 &#10;&#9;C152.377823,149.591736 149.970612,152.525864 148.018906,155.736862 &#10;&#9;C145.719711,159.519562 145.401382,163.187668 150.585861,166.077011 &#10;&#9;C152.879883,159.073486 156.162766,153.304337 165.201141,154.684921 &#10;&#9;C164.422150,153.593552 163.899841,153.298798 163.512833,152.879257 &#10;&#9;C162.326065,151.592758 161.191193,150.258377 160.036148,148.942612 &#10;&#9;C161.782715,148.220535 163.550507,146.848221 165.271652,146.904465 &#10;&#9;C169.571213,147.044952 173.853699,147.802963 178.135437,148.370590 &#10;&#9;C183.771591,149.117798 187.623062,155.829681 185.555923,161.236664 &#10;&#9;C183.567566,166.437561 185.166626,168.904755 191.561478,169.723602 &#10;&#9;C191.477142,168.221298 191.544052,166.779251 191.290939,165.395752 &#10;&#9;C190.516006,161.159744 191.880051,159.386871 196.356415,160.431610 &#10;&#9;C197.858276,160.782135 199.510818,160.487030 202.345703,160.487030 &#10;&#9;C196.954315,156.787384 188.941299,157.982651 190.571640,148.896637 &#10;&#9;C197.338348,148.786255 203.690506,147.958054 209.896515,152.015823 &#10;&#9;C216.190674,156.131241 223.673615,157.126816 231.079269,155.646744 &#10;&#9;C238.634186,154.136856 245.860855,151.647324 250.533508,143.767197 &#10;&#9;C251.228195,143.377121 251.922867,142.987045 253.218826,142.522537 &#10;&#9;C254.518448,141.014984 255.818085,139.507431 257.696381,137.908997 &#10;&#9;C257.988586,137.575668 258.280823,137.242340 258.573029,136.908997 &#10;&#9;C258.053558,136.605972 257.534088,136.302948 256.813446,135.306015 &#10;&#9;C256.414429,133.925781 256.015411,132.545563 256.176697,130.864273 &#10;&#9;C255.775620,130.242798 255.374557,129.621307 254.814575,128.741058 &#10;&#9;C254.814575,128.741058 254.863358,128.441315 254.797256,127.868454 &#10;&#9;C254.554321,127.583374 254.311386,127.298294 253.780746,126.516060 &#10;&#9;C253.555435,126.010239 253.330109,125.504417 253.746994,124.886604 &#10;&#9;C252.835373,122.591110 251.923752,120.295616 250.813095,117.408318 &#10;z" transform="matrix(1, 0, 0, 1, 0, -3.552713678800501e-15)"/>
  <path fill="#020702" opacity="1.000000" stroke="none" d="&#10;M253.104797,124.998589 &#10;&#9;C253.330109,125.504417 253.555435,126.010239 253.930038,127.058418 &#10;&#9;C254.340683,127.880959 254.602020,128.161133 254.863358,128.441315 &#10;&#9;C254.863358,128.441315 254.814575,128.741058 254.862274,129.170258 &#10;&#9;C255.145432,130.121399 255.380905,130.643372 255.616379,131.165329 &#10;&#9;C256.015411,132.545563 256.414429,133.925781 256.862366,135.986908 &#10;&#9;C256.980103,137.111816 257.048889,137.555847 257.117706,137.999878 &#10;&#9;C255.818085,139.507431 254.518448,141.014984 252.713806,142.272537 &#10;&#9;C250.258987,140.890640 248.384598,138.955841 246.346436,138.764374 &#10;&#9;C236.998230,137.886185 227.605988,137.458633 218.222839,137.009308 &#10;&#9;C217.563461,136.977737 216.849823,138.078705 216.161423,138.653061 &#10;&#9;C216.783752,139.322021 217.327515,140.452820 218.042923,140.574478 &#10;&#9;C220.307983,140.959717 222.649872,141.202789 224.939377,141.079620 &#10;&#9;C233.421326,140.623322 241.871078,140.191711 249.814651,144.091431 &#10;&#9;C245.860855,151.647324 238.634186,154.136856 231.079269,155.646744 &#10;&#9;C223.673615,157.126816 216.190674,156.131241 209.896515,152.015823 &#10;&#9;C203.690506,147.958054 197.338348,148.786255 190.571640,148.896637 &#10;&#9;C188.941299,157.982651 196.954315,156.787384 202.345703,160.487030 &#10;&#9;C199.510818,160.487030 197.858276,160.782135 196.356415,160.431610 &#10;&#9;C191.880051,159.386871 190.516006,161.159744 191.290939,165.395752 &#10;&#9;C191.544052,166.779251 191.477142,168.221298 191.561478,169.723602 &#10;&#9;C185.166626,168.904755 183.567566,166.437561 185.555923,161.236664 &#10;&#9;C187.623062,155.829681 183.771591,149.117798 178.135437,148.370590 &#10;&#9;C173.853699,147.802963 169.571213,147.044952 165.271652,146.904465 &#10;&#9;C163.550507,146.848221 161.782715,148.220535 160.036148,148.942612 &#10;&#9;C161.191193,150.258377 162.326065,151.592758 163.512833,152.879257 &#10;&#9;C163.899841,153.298798 164.422150,153.593552 165.201141,154.684921 &#10;&#9;C156.162766,153.304337 152.879883,159.073486 150.585861,166.077011 &#10;&#9;C145.401382,163.187668 145.719711,159.519562 148.018906,155.736862 &#10;&#9;C149.970612,152.525864 152.377823,149.591736 154.629196,146.471725 &#10;&#9;C145.668106,142.563873 139.210999,145.849304 137.742172,154.725540 &#10;&#9;C134.858765,172.150055 144.007965,190.275146 158.634644,196.114746 &#10;&#9;C169.307907,200.375992 179.969086,195.943192 182.576843,186.233627 &#10;&#9;C183.906021,181.284653 182.320129,177.278778 178.566727,174.204025 &#10;&#9;C174.629318,170.978516 169.825851,169.442001 165.076294,171.440445 &#10;&#9;C163.395721,172.147552 162.229477,175.579605 162.005280,177.882187 &#10;&#9;C161.693588,181.083633 164.280273,180.851944 166.839828,181.037582 &#10;&#9;C168.640533,181.168198 171.163239,182.865173 171.758881,184.461502 &#10;&#9;C172.239517,185.749619 170.651596,189.071457 169.385544,189.439072 &#10;&#9;C167.694763,189.929993 165.326797,188.640656 163.446579,187.715652 &#10;&#9;C162.356369,187.179291 161.776642,185.693192 160.751862,184.919815 &#10;&#9;C157.389359,182.382111 155.624069,179.085632 156.528748,174.951004 &#10;&#9;C157.474380,170.629227 160.661865,167.783066 164.842804,167.321182 &#10;&#9;C168.865524,166.876816 173.270401,166.999481 177.086426,168.205215 &#10;&#9;C184.076706,170.413879 188.119659,176.199509 188.092575,182.159424 &#10;&#9;C188.059097,189.527313 182.036575,197.825531 174.178024,200.679428 &#10;&#9;C160.957016,205.480759 149.292435,201.382690 139.594345,192.546906 &#10;&#9;C123.230385,177.637939 117.984558,158.811142 124.235794,137.594559 &#10;&#9;C130.307800,116.986244 145.460724,106.157562 165.958405,102.008621 &#10;&#9;C183.525055,98.452957 199.657806,101.726242 214.266891,112.610779 &#10;&#9;C215.902100,110.681419 217.024353,108.753975 218.669540,107.528625 &#10;&#9;C223.715042,103.770714 229.085236,101.715607 235.353607,105.046318 &#10;&#9;C237.357849,106.111282 240.046631,105.952126 241.955368,107.117599 &#10;&#9;C244.782166,108.843597 247.192535,111.251595 249.868988,113.978447 &#10;&#9;C250.151794,115.121796 250.345810,115.655937 250.539825,116.190086 &#10;&#9;C250.630920,116.596161 250.722000,117.002243 250.858337,118.080093 &#10;&#9;C251.637329,120.834106 252.371063,122.916344 253.104797,124.998589 &#10;M220.277969,123.949951 &#10;&#9;C222.964767,128.237228 226.894577,130.217926 231.716888,128.777802 &#10;&#9;C235.845505,127.544838 239.091049,124.806671 239.394897,119.986382 &#10;&#9;C239.665710,115.689781 238.245895,112.152069 234.206696,110.044899 &#10;&#9;C230.134201,107.920357 226.134903,107.942596 222.639786,111.058640 &#10;&#9;C218.913269,114.380997 217.911484,118.523430 220.277969,123.949951 &#10;z" transform="matrix(1, 0, 0, 1, 0, -3.552713678800501e-15)"/>
  <path fill="#31CE31" opacity="1.000000" stroke="none" d="&#10;M250.174072,143.929321 &#10;&#9;C241.871078,140.191711 233.421326,140.623322 224.939377,141.079620 &#10;&#9;C222.649872,141.202789 220.307983,140.959717 218.042923,140.574478 &#10;&#9;C217.327515,140.452820 216.783752,139.322021 216.161423,138.653061 &#10;&#9;C216.849823,138.078705 217.563461,136.977737 218.222839,137.009308 &#10;&#9;C227.605988,137.458633 236.998230,137.886185 246.346436,138.764374 &#10;&#9;C248.384598,138.955841 250.258987,140.890640 252.413177,142.309753 &#10;&#9;C251.922867,142.987045 251.228195,143.377121 250.174072,143.929321 &#10;z" transform="matrix(1, 0, 0, 1, 0, -3.552713678800501e-15)"/>
  <path fill="#31CE31" opacity="1.000000" stroke="none" d="&#10;M253.425903,124.942596 &#10;&#9;C252.371063,122.916344 251.637329,120.834106 250.957855,118.375992 &#10;&#9;C251.923752,120.295616 252.835373,122.591110 253.425903,124.942596 &#10;z" transform="matrix(1, 0, 0, 1, 0, -3.552713678800501e-15)"/>
  <path fill="#31CE31" opacity="1.000000" stroke="none" d="&#10;M250.826904,116.048851 &#10;&#9;C250.345810,115.655937 250.151794,115.121796 250.009918,114.293877 &#10;&#9;C250.412720,114.635941 250.763367,115.271774 250.826904,116.048851 &#10;z" transform="matrix(1, 0, 0, 1, 0, -3.552713678800501e-15)"/>
  <path fill="#31CE31" opacity="1.000000" stroke="none" d="&#10;M255.896545,131.014801 &#10;&#9;C255.380905,130.643372 255.145432,130.121399 254.941711,129.299637 &#10;&#9;C255.374557,129.621307 255.775620,130.242798 255.896545,131.014801 &#10;z" transform="matrix(1, 0, 0, 1, 0, -3.552713678800501e-15)"/>
  <path fill="#31CE31" opacity="1.000000" stroke="none" d="&#10;M257.407043,137.954437 &#10;&#9;C257.048889,137.555847 256.980103,137.111816 256.962952,136.333862 &#10;&#9;C257.534088,136.302948 258.053558,136.605972 258.573059,136.908997 &#10;&#9;C258.280823,137.242340 257.988586,137.575668 257.407043,137.954437 &#10;z" transform="matrix(1, 0, 0, 1, 0, -3.552713678800501e-15)"/>
  <path fill="#31CE31" opacity="1.000000" stroke="none" d="&#10;M254.830307,128.154877 &#10;&#9;C254.602020,128.161133 254.340683,127.880959 254.073898,127.306999 &#10;&#9;C254.311386,127.298294 254.554321,127.583374 254.830307,128.154877 &#10;z" transform="matrix(1, 0, 0, 1, 0, -3.552713678800501e-15)"/>
  <path fill="#EFEFEF" opacity="1.000000" stroke="none" d="&#10;M220.120331,123.588600 &#10;&#9;C217.911484,118.523430 218.913269,114.380997 222.639786,111.058640 &#10;&#9;C226.134903,107.942596 230.134201,107.920357 234.206696,110.044899 &#10;&#9;C238.245895,112.152069 239.665710,115.689781 239.394897,119.986382 &#10;&#9;C239.091049,124.806671 235.845505,127.544838 231.716888,128.777802 &#10;&#9;C226.894577,130.217926 222.964767,128.237228 220.120331,123.588600 &#10;M222.796310,116.154480 &#10;&#9;C223.489868,117.746536 223.880707,119.640030 225.022034,120.786247 &#10;&#9;C225.496201,121.262444 228.340988,120.505135 228.737656,119.663223 &#10;&#9;C229.310364,118.447731 229.009521,115.506332 228.420975,115.313126 &#10;&#9;C226.873062,114.804970 224.968491,115.383331 222.796310,116.154480 &#10;z" transform="matrix(1, 0, 0, 1, 0, -3.552713678800501e-15)"/>
  <path fill="#1F1F1F" opacity="1.000000" stroke="none" d="&#10;M223.001144,115.841690 &#10;&#9;C224.968491,115.383331 226.873062,114.804970 228.420975,115.313126 &#10;&#9;C229.009521,115.506332 229.310364,118.447731 228.737656,119.663223 &#10;&#9;C228.340988,120.505135 225.496201,121.262444 225.022034,120.786247 &#10;&#9;C223.880707,119.640030 223.489868,117.746536 223.001144,115.841690 &#10;z" transform="matrix(1, 0, 0, 1, 0, -3.552713678800501e-15)"/>
</svg>